<?xml version="1.0" encoding="UTF-8" standalone="no"?>
<!-- Created with Inkscape (http://www.inkscape.org/) -->

<svg
   xmlns:dc="http://purl.org/dc/elements/1.1/"
   xmlns:cc="http://creativecommons.org/ns#"
   xmlns:rdf="http://www.w3.org/1999/02/22-rdf-syntax-ns#"
   xmlns:svg="http://www.w3.org/2000/svg"
   xmlns="http://www.w3.org/2000/svg"
   xmlns:sodipodi="http://sodipodi.sourceforge.net/DTD/sodipodi-0.dtd"
   xmlns:inkscape="http://www.inkscape.org/namespaces/inkscape"
   width="88"
   height="64"
   id="svg2"
   version="1.1"
   inkscape:version="0.48.4 r9939"
   sodipodi:docname="redking.svg">
  <defs
     id="defs4" />
  <sodipodi:namedview
     id="base"
     pagecolor="#ffffff"
     bordercolor="#666666"
     borderopacity="1.0"
     inkscape:pageopacity="0.0"
     inkscape:pageshadow="2"
     inkscape:zoom="1.4"
     inkscape:cx="-48.406789"
     inkscape:cy="13.354191"
     inkscape:document-units="px"
     inkscape:current-layer="layer1"
     showgrid="false"
     inkscape:window-width="855"
     inkscape:window-height="838"
     inkscape:window-x="756"
     inkscape:window-y="107"
     inkscape:window-maximized="0"
     fit-margin-top="0"
     fit-margin-left="0"
     fit-margin-right="0"
     fit-margin-bottom="0" />
  <metadata
     id="metadata7">
    <rdf:RDF>
      <cc:Work
         rdf:about="">
        <dc:format>image/svg+xml</dc:format>
        <dc:type
           rdf:resource="http://purl.org/dc/dcmitype/StillImage" />
        <dc:title></dc:title>
      </cc:Work>
    </rdf:RDF>
  </metadata>
  <g
     inkscape:label="Layer 1"
     inkscape:groupmode="layer"
     id="layer1"
     transform="translate(-563.42857,-503.36217)">
    <g
       id="use211"
       transform="matrix(0,-1,1,0,563.42857,567.36217)">
      <path
         id="path4113"
         d="M 9,0 C 8.47,0 7.96,0.21 7.59,0.59 l -7,7 C 0.21,7.96 0,8.47 0,9 v 77 c 0,1.1 0.9,2 2,2 h 53 c 0.53,0 1.04,-0.21 1.41,-0.59 l 7,-7 C 63.79,80.04 64,79.53 64,79 V 2 C 64,0.9 63.1,0 62,0 H 9 z"
         inkscape:connector-curvature="0" />
      <path
         style="fill:#9f9f9f"
         id="path4115"
         d="m 11.75,78.25 -9,9 h 9 H 55 c 0.33,0 0.65,-0.13 0.88,-0.37 l 7,-7 c 0.23,-0.23 0.37,-1.3 0.37,-1.63 h -51.5 z"
         inkscape:connector-curvature="0" />
      <path
         style="fill:#d7d7d7"
         id="path4117"
         d="m 8.12,1.12 -7,7 C 0.88,8.35 0.75,8.67 0.75,9 v 66.25 1 9 l 2,2 7,-7 v -4 -1 -74.5 c -0.33,0 -1.4,0.13 -1.63,0.37 z"
         inkscape:connector-curvature="0" />
      <path
         style="fill:#bfbfbf"
         id="path4119"
         d="M 1.61,86.89 11.75,76.75 v -0.5 L 1.34,86.66 c 0.08,0.09 0.17,0.16 0.27,0.23 z"
         inkscape:connector-curvature="0" />
      <path
         style="fill:#b7b7b7"
         id="path4121"
         d="m 1.93,87.07 9.82,-9.82 v -0.5 L 1.61,86.89 c 0.1,0.07 0.21,0.13 0.32,0.18 z"
         inkscape:connector-curvature="0" />
      <path
         style="fill:#afafaf"
         id="path4123"
         d="m 2.3,87.2 9.45,-9.45 v -0.5 l -9.82,9.82 c 0.12,0.05 0.24,0.1 0.37,0.13 z"
         inkscape:connector-curvature="0" />
      <path
         style="fill:#a7a7a7"
         id="path4125"
         d="M 11.75,77.75 2.3,87.2 c 0.14,0.03 0.29,0.05 0.45,0.05 l 9,-9 v -0.5 z"
         inkscape:connector-curvature="0" />
      <path
         style="fill:#c7c7c7"
         id="path4127"
         d="M 1.34,86.66 11.75,76.25 h -0.5 L 1.11,86.39 c 0.07,0.1 0.14,0.19 0.23,0.27 z"
         inkscape:connector-curvature="0" />
      <path
         style="fill:#cdcdcd"
         id="path4129"
         d="M 1.11,86.39 11.25,76.25 h -0.5 l -9.82,9.82 c 0.05,0.11 0.11,0.22 0.18,0.32 z"
         inkscape:connector-curvature="0" />
      <path
         style="fill:#d2d2d2"
         id="path4131"
         d="m 0.93,86.07 9.82,-9.82 h -0.5 L 0.8,85.7 c 0.03,0.13 0.08,0.25 0.13,0.37 z"
         inkscape:connector-curvature="0" />
      <path
         style="fill:#d7d7d7"
         id="path4133"
         d="m 10.25,76.25 h -0.5 l -9,9 c 0,0.15 0.02,0.3 0.05,0.45 l 9.45,-9.45 z"
         inkscape:connector-curvature="0" />
      <path
         style="fill:#f6f6f6"
         id="path4135"
         d="M 63.25,78.25 V 2.75 c 0,-1.1 -0.9,-2 -2,-2 h -50.5 c -1.1,0 -2,0.9 -2,2 v 75.5 c 0,1.1 0.9,2 2,2 h 50.5 c 1.1,0 2,-0.9 2,-2 z"
         inkscape:connector-curvature="0" />
      <path
         style="fill:#ffffff"
         id="path4137"
         d="M 8.75,78.25 V 2.75 c 0,-1.1 0.9,-2 2,-2 h -1 c -1.1,0 -2,0.9 -2,2 v 75.5 c 0,1.1 0.9,2 2,2 h 1 c -1.1,0 -2,-0.9 -2,-2 z"
         inkscape:connector-curvature="0" />
    </g>
    <path
       style="fill:#101040"
       d="m 601.57053,507.54222 c 0.37383,0.46674 0.84112,2.14703 0.84112,8.02804 0,0.84014 0,1.68028 0,2.61378 -3.17756,0.46674 -5.88782,0.93349 -6.35511,1.12019 l -0.56074,0.1867 2.61681,2.52043 0.18691,-0.0933 c 1.02803,-0.28005 2.42989,-0.46675 3.92521,-0.65345 0,0.65345 -0.37383,6.8145 -0.37383,7.3746 -4.57941,0.3734 -8.59808,1.02684 -11.86909,1.77364 -2.80372,0.74679 -4.48595,2.42708 -4.85978,5.04086 -0.0935,0.37339 -0.0935,0.84014 -0.0935,1.30689 0,6.6278 6.44856,15.77603 6.54202,15.77603 l 0.74766,0.46674 -0.28038,-0.84014 c 0,-0.0933 -2.6168,-8.77483 -2.6168,-14.56249 0,-1.68029 0.18691,-3.08053 0.74766,-4.01402 0.37383,-0.56009 0.74766,-0.84014 1.3084,-0.93349 1.21495,-0.1867 2.52335,-0.3734 3.7383,-0.5601 0,0 2.89718,3.73397 3.45792,4.38742 -0.46729,0.0933 -1.3084,0.28005 -1.3084,0.28005 l 0,0.28005 0.18691,2.05368 0.37383,-0.0933 c 0.56075,-0.1867 1.68223,-0.46675 2.99064,-0.65344 0,0.56009 0.0934,2.24038 0.18691,2.70712 -1.58877,0.46675 -2.99063,1.02685 -3.55138,1.30689 l -0.37383,0.1867 1.40186,1.49359 0.18692,-0.0933 c 0.6542,-0.28004 1.58877,-0.56009 2.52335,-0.84014 0,0.65344 0.28037,5.22756 0.28037,5.22756 l 0.6542,0 c 0,0 1.02803,-5.13421 1.12149,-5.60096 1.68223,-0.1867 3.27101,-0.0933 4.48595,0.1867 l 0.37383,0.0933 v -2.80048 l -0.18691,-0.0933 c -0.74766,-0.3734 -2.14952,-0.3734 -4.20558,0.0933 0.0935,-0.65344 0.37383,-1.96033 0.46728,-2.33373 1.49532,-0.0933 2.71027,-0.1867 3.55138,-0.0933 l 0.46729,0.0933 -0.6542,-2.42708 c 0,0 -0.84112,0 -1.3084,0.0933 0.74766,-0.84015 3.27101,-4.10737 3.45792,-4.29407 0.28037,0 3.64484,0.0933 3.64484,0.0933 1.49532,0.0934 2.80372,0.65344 3.83175,1.86698 1.21495,1.40024 1.86915,3.64063 1.86915,5.88101 0,0.46675 0,1.02684 -0.0935,1.49359 l -0.0934,0.65344 c -0.65421,4.76082 -1.21495,8.21474 -2.89718,8.96154 -1.12149,0.46674 -2.89718,-0.28005 -5.51399,-2.24039 l -0.46729,0.46675 5.14016,8.96153 0.28037,-0.0934 c 6.26165,-2.24038 7.19622,-3.54727 9.71957,-14.37579 1.12149,-4.76081 0.74766,-8.49479 -1.21495,-11.01522 -2.33643,-3.08052 -5.88781,-3.45392 -6.07473,-3.45392 -0.0934,0 -6.26164,-0.28005 -13.64478,0.1867 0.18692,-0.7468 1.86915,-7.0012 1.96261,-7.3746 2.33643,0 4.3925,0.0933 5.32707,0.46675 l 0.37383,0.0933 0.37383,-4.38742 -0.37383,0 c -1.02803,0 -2.61681,0.0933 -4.76633,0.28005 1.21495,-4.10737 1.77569,-5.41426 1.96261,-5.78766 l 0.18691,-0.28004 -7.57005,-4.38742 -0.18691,0.28005 z m 4.11212,23.61737 c -0.0934,0.65344 -0.6542,4.01402 -0.6542,4.38742 0,0 -0.0935,0 -0.0935,0 0,-0.0933 0.0935,-0.3734 0.0935,-0.3734 l -4.11212,0.3734 c 0,0 0,0.46674 0,0.56009 -0.37383,0.0934 -0.93458,0.1867 -1.30841,0.1867 0,-0.65344 0,-4.66746 0,-4.76081 2.05607,-0.0933 4.01867,-0.28005 6.07473,-0.3734 z"
       id="path855"
       inkscape:connector-curvature="0" />
  </g>
</svg>
